<svg xmlns="http://www.w3.org/2000/svg" xmlns:xlink="http://www.w3.org/1999/xlink" width="500" zoomAndPan="magnify" viewBox="0 0 375 374.999991" height="500" preserveAspectRatio="xMidYMid meet" version="1.0"><defs><g/><clipPath id="361f46140c"><path d="M 187.5 0 C 83.945312 0 0 83.945312 0 187.5 C 0 291.054688 83.945312 375 187.5 375 C 291.054688 375 375 291.054688 375 187.5 C 375 83.945312 291.054688 0 187.5 0 Z M 187.5 0 " clip-rule="nonzero"/></clipPath><clipPath id="fd793dc863"><path d="M 0 0 L 375 0 L 375 375 L 0 375 Z M 0 0 " clip-rule="nonzero"/></clipPath><clipPath id="460e1653fa"><path d="M 187.5 0 C 83.945312 0 0 83.945312 0 187.5 C 0 291.054688 83.945312 375 187.5 375 C 291.054688 375 375 291.054688 375 187.5 C 375 83.945312 291.054688 0 187.5 0 Z M 187.5 0 " clip-rule="nonzero"/></clipPath><clipPath id="694b697329"><rect x="0" width="375" y="0" height="375"/></clipPath><clipPath id="7556faad9c"><rect x="0" width="232" y="0" height="375"/></clipPath></defs><rect x="-37.5" width="450" fill="#ffffff" y="-37.499999" height="449.999989" fill-opacity="1"/><rect x="-37.5" width="450" fill="#ffffff" y="-37.499999" height="449.999989" fill-opacity="1"/><g clip-path="url(#361f46140c)"><g transform="matrix(1, 0, 0, 1, 0, 0)"><g clip-path="url(#694b697329)"><g clip-path="url(#fd793dc863)"><g clip-path="url(#460e1653fa)"><rect x="-82.5" width="540" fill="#000000" height="539.999987" y="-82.499998" fill-opacity="1"/></g></g></g></g></g><g transform="matrix(1, 0, 0, 1, 70, 0)"><g clip-path="url(#7556faad9c)"><g fill="#ffffff" fill-opacity="1"><g transform="translate(1.416309, 328.462499)"><g><path d="M 14.890625 -12.0625 C 8.984375 -16.3125 7.210938 -22.101562 9.578125 -29.4375 C 12.878906 -39.125 16.421875 -48.632812 20.203125 -57.96875 C 23.992188 -67.3125 28.367188 -76.359375 33.328125 -85.109375 C 34.035156 -86.765625 34.863281 -88.359375 35.8125 -89.890625 C 36.757812 -91.429688 37.351562 -93.03125 37.59375 -94.6875 C 38.769531 -100.125 40.894531 -104.96875 43.96875 -109.21875 C 47.039062 -113.476562 49.640625 -117.851562 51.765625 -122.34375 C 52.953125 -124.707031 54.253906 -126.953125 55.671875 -129.078125 C 57.085938 -131.203125 58.269531 -133.328125 59.21875 -135.453125 C 60.875 -139.003906 61.347656 -141.3125 60.640625 -142.375 C 59.929688 -143.4375 57.800781 -143.734375 54.25 -143.265625 C 48.582031 -143.023438 42.96875 -142.375 37.40625 -141.3125 C 31.851562 -140.25 26.476562 -138.535156 21.28125 -136.171875 C 17.257812 -134.515625 14.71875 -134.039062 13.65625 -134.75 C 12.59375 -135.457031 11.113281 -136.875 9.21875 -139 C 5.4375 -143.019531 3.546875 -146.148438 3.546875 -148.390625 C 3.546875 -150.640625 6.617188 -152.59375 12.765625 -154.25 C 19.617188 -156.144531 26.351562 -157.800781 32.96875 -159.21875 C 39.59375 -160.632812 46.332031 -161.460938 53.1875 -161.703125 L 59.921875 -162.0625 C 65.128906 -162.53125 68.851562 -163 71.09375 -163.46875 C 73.34375 -163.945312 75.175781 -165.128906 76.59375 -167.015625 C 78.007812 -168.910156 79.898438 -171.984375 82.265625 -176.234375 C 85.816406 -182.617188 89.304688 -188.941406 92.734375 -195.203125 C 96.160156 -201.472656 99.410156 -207.914062 102.484375 -214.53125 C 106.023438 -221.625 109.863281 -228.597656 114 -235.453125 C 118.144531 -242.316406 122.34375 -249.175781 126.59375 -256.03125 C 129.195312 -260.050781 131.503906 -262.414062 133.515625 -263.125 C 135.523438 -263.832031 137.828125 -263.238281 140.421875 -261.34375 C 143.492188 -259.21875 145.382812 -256.378906 146.09375 -252.828125 C 146.800781 -249.285156 146.09375 -245.976562 143.96875 -242.90625 C 143.019531 -241.25 141.835938 -239.59375 140.421875 -237.9375 C 139.003906 -236.28125 137.585938 -234.507812 136.171875 -232.625 C 132.390625 -228.132812 128.84375 -223.347656 125.53125 -218.265625 C 122.21875 -213.179688 119.144531 -207.921875 116.3125 -202.484375 C 114.1875 -197.992188 111.765625 -193.617188 109.046875 -189.359375 C 106.328125 -185.109375 103.664062 -180.734375 101.0625 -176.234375 C 100.59375 -175.296875 100.003906 -174.351562 99.296875 -173.40625 C 98.585938 -172.457031 97.992188 -171.394531 97.515625 -170.21875 C 96.097656 -166.664062 97.160156 -164.769531 100.703125 -164.53125 C 101.890625 -164.300781 103.191406 -164.1875 104.609375 -164.1875 C 106.023438 -164.1875 107.441406 -164.066406 108.859375 -163.828125 C 113.828125 -163.585938 119.085938 -163.289062 124.640625 -162.9375 C 130.203125 -162.582031 133.097656 -162.289062 133.328125 -162.0625 C 136.640625 -161.820312 139.953125 -161.640625 143.265625 -161.515625 C 146.578125 -161.398438 149.769531 -161.109375 152.84375 -160.640625 C 154.96875 -163.710938 157.148438 -166.785156 159.390625 -169.859375 C 161.640625 -172.929688 163.710938 -176.003906 165.609375 -179.078125 C 171.753906 -188.765625 177.835938 -198.632812 183.859375 -208.6875 C 189.890625 -218.738281 196.097656 -228.609375 202.484375 -238.296875 C 204.367188 -240.898438 206.492188 -243.320312 208.859375 -245.5625 C 211.222656 -247.8125 213.585938 -250.117188 215.953125 -252.484375 C 218.796875 -255.316406 221.039062 -255.078125 222.6875 -251.765625 C 223.632812 -249.878906 224.519531 -247.929688 225.34375 -245.921875 C 226.175781 -243.910156 226.710938 -241.84375 226.953125 -239.71875 C 227.421875 -236.40625 226.472656 -233.566406 224.109375 -231.203125 C 217.015625 -223.878906 210.453125 -216.078125 204.421875 -207.796875 C 198.398438 -199.523438 192.789062 -190.898438 187.59375 -181.921875 C 185.695312 -178.609375 183.625 -175.296875 181.375 -171.984375 C 179.132812 -168.671875 176.953125 -165.363281 174.828125 -162.0625 C 173.171875 -159.695312 171.8125 -157.210938 170.75 -154.609375 C 169.6875 -152.003906 169.269531 -149.050781 169.5 -145.75 C 169.738281 -143.382812 169.382812 -141.429688 168.4375 -139.890625 C 167.488281 -138.359375 165.597656 -137.351562 162.765625 -136.875 C 161.816406 -136.644531 160.75 -136.054688 159.5625 -135.109375 C 158.382812 -134.160156 157.441406 -133.097656 156.734375 -131.921875 C 152.242188 -123.878906 147.691406 -115.894531 143.078125 -107.96875 C 138.472656 -100.050781 134.160156 -91.957031 130.140625 -83.6875 C 127.535156 -78.25 125.582031 -72.457031 124.28125 -66.3125 C 122.988281 -60.164062 123.171875 -53.898438 124.828125 -47.515625 C 125.054688 -47.046875 125.171875 -46.457031 125.171875 -45.75 C 125.171875 -45.039062 125.171875 -44.445312 125.171875 -43.96875 C 125.171875 -40.894531 123.398438 -39.359375 119.859375 -39.359375 C 116.546875 -38.890625 113.828125 -39.953125 111.703125 -42.546875 C 107.921875 -46.335938 106.03125 -50.953125 106.03125 -56.390625 C 106.03125 -63.953125 106.914062 -71.21875 108.6875 -78.1875 C 110.457031 -85.164062 113.234375 -91.960938 117.015625 -98.578125 C 120.566406 -104.492188 124.113281 -110.347656 127.65625 -116.140625 C 131.207031 -121.929688 134.753906 -127.660156 138.296875 -133.328125 C 139.710938 -135.460938 140.894531 -137.472656 141.84375 -139.359375 C 142.3125 -140.773438 142.25 -142.132812 141.65625 -143.4375 C 141.070312 -144.738281 140.070312 -145.507812 138.65625 -145.75 C 130.613281 -146.6875 122.632812 -147.332031 114.71875 -147.6875 C 106.800781 -148.050781 98.820312 -147.757812 90.78125 -146.8125 C 87 -146.570312 84.160156 -144.796875 82.265625 -141.484375 C 79.898438 -137.703125 77.65625 -133.976562 75.53125 -130.3125 C 73.40625 -126.65625 71.28125 -123.050781 69.15625 -119.5 L 59.578125 -103.1875 C 59.335938 -102.476562 58.976562 -101.828125 58.5 -101.234375 C 58.03125 -100.648438 57.5625 -100.003906 57.09375 -99.296875 L 40.078125 -64.890625 C 36.523438 -57.566406 33.742188 -50.0625 31.734375 -42.375 C 29.722656 -34.6875 27.65625 -26.945312 25.53125 -19.15625 C 25.289062 -18.207031 25.113281 -17.257812 25 -16.3125 C 24.882812 -15.363281 24.585938 -14.414062 24.109375 -13.46875 C 23.160156 -11.820312 21.738281 -10.9375 19.84375 -10.8125 C 17.957031 -10.695312 16.304688 -11.113281 14.890625 -12.0625 Z M 14.890625 -12.0625 "/></g></g></g></g></g></svg>